<svg width="192" height="192" viewBox="0 0 192 192" fill="none" xmlns="http://www.w3.org/2000/svg">
<rect width="192" height="192" fill="white"/>
<path d="M57.392 120H29.36V115.872C31.984 115.872 33.936 115.68 35.216 115.296C36.496 114.848 37.328 113.984 37.712 112.704C38.096 111.424 38.288 109.472 38.288 106.848V69.216C38.288 66.848 38 65.12 37.424 64.032C36.912 62.88 35.984 62.144 34.64 61.824C33.36 61.504 31.6 61.344 29.36 61.344V56.928H57.008C61.808 56.928 66.48 57.344 71.024 58.176C75.568 59.008 79.664 60.512 83.312 62.688C86.96 64.864 89.84 67.936 91.952 71.904C94.128 75.872 95.216 81.024 95.216 87.36C95.216 93.632 94.224 98.88 92.24 103.104C90.32 107.264 87.6 110.592 84.08 113.088C80.624 115.584 76.592 117.376 71.984 118.464C67.44 119.488 62.576 120 57.392 120ZM56.912 114.528C61.712 114.528 65.84 113.824 69.296 112.416C72.752 111.008 75.408 108.448 77.264 104.736C79.12 100.96 80.048 95.52 80.048 88.416C80.048 80.032 78.096 73.6 74.192 69.12C70.352 64.64 64.368 62.4 56.24 62.4C55.664 62.4 55.088 62.4 54.512 62.4C54 62.4 53.328 62.432 52.496 62.496V114.432C53.264 114.496 54.032 114.528 54.8 114.528C55.568 114.528 56.272 114.528 56.912 114.528ZM136.873 120H102.889V115.872C105.449 115.872 107.369 115.68 108.649 115.296C109.929 114.848 110.761 114.016 111.145 112.8C111.593 111.52 111.817 109.632 111.817 107.136V69.408C111.817 66.976 111.593 65.184 111.145 64.032C110.697 62.816 109.833 62.048 108.553 61.728C107.273 61.344 105.385 61.152 102.889 61.152V56.928H134.953C140.841 56.928 145.481 57.536 148.873 58.752C152.265 59.904 154.665 61.568 156.073 63.744C157.481 65.856 158.185 68.352 158.185 71.232C158.185 75.52 156.873 78.784 154.249 81.024C151.625 83.264 148.265 84.928 144.169 86.016V86.592C146.921 86.976 149.577 87.712 152.137 88.8C154.761 89.888 156.905 91.552 158.569 93.792C160.297 96.032 161.161 99.104 161.161 103.008C161.161 108.64 159.049 112.896 154.825 115.776C150.665 118.592 144.681 120 136.873 120ZM131.497 115.2C133.481 115.2 135.305 115.104 136.969 114.912C138.633 114.656 140.073 114.144 141.289 113.376C142.505 112.544 143.433 111.296 144.073 109.632C144.777 107.968 145.129 105.728 145.129 102.912C145.129 99.008 144.489 96.128 143.209 94.272C141.929 92.352 140.265 91.104 138.217 90.528C136.233 89.888 134.057 89.568 131.689 89.568H126.121V114.912C127.017 114.976 127.881 115.04 128.713 115.104C129.545 115.168 130.473 115.2 131.497 115.2ZM126.121 62.496V84.48H130.825C135.561 84.48 138.729 83.648 140.329 81.984C141.993 80.256 142.825 77.312 142.825 73.152C142.825 69.376 141.993 66.624 140.329 64.896C138.665 63.104 135.433 62.208 130.633 62.208C129.929 62.208 129.225 62.24 128.521 62.304C127.817 62.304 127.017 62.368 126.121 62.496Z" fill="url(#paint0_linear_120_425)"/>
<path d="M33.884 141.112C33.548 141.112 33.2167 141.093 32.89 141.056C32.5633 141.019 32.2133 140.958 31.84 140.874V131.424C32.2507 131.331 32.638 131.27 33.002 131.242C33.3753 131.205 33.7253 131.186 34.052 131.186C34.9107 131.186 35.662 131.354 36.306 131.69C36.95 132.026 37.454 132.558 37.818 133.286C38.182 134.014 38.364 134.966 38.364 136.142C38.364 137.346 38.168 138.312 37.776 139.04C37.3933 139.768 36.866 140.295 36.194 140.622C35.522 140.949 34.752 141.112 33.884 141.112ZM34.066 139.6C34.6633 139.6 35.1487 139.465 35.522 139.194C35.8953 138.914 36.166 138.517 36.334 138.004C36.502 137.481 36.586 136.861 36.586 136.142C36.586 135.479 36.5113 134.891 36.362 134.378C36.2127 133.865 35.9653 133.459 35.62 133.16C35.2747 132.852 34.8033 132.698 34.206 132.698C34.1033 132.698 33.996 132.703 33.884 132.712C33.7813 132.712 33.6787 132.721 33.576 132.74V139.572C33.6507 139.581 33.73 139.591 33.814 139.6C33.9073 139.6 33.9913 139.6 34.066 139.6ZM43.3322 141.168C42.5015 141.168 41.7875 141.019 41.1902 140.72C40.6022 140.421 40.1495 139.992 39.8322 139.432C39.5242 138.863 39.3702 138.177 39.3702 137.374C39.3702 136.721 39.4635 136.151 39.6502 135.666C39.8462 135.181 40.1075 134.775 40.4342 134.448C40.7702 134.121 41.1435 133.879 41.5542 133.72C41.9649 133.552 42.3895 133.468 42.8282 133.468C43.5375 133.468 44.1302 133.613 44.6062 133.902C45.0915 134.182 45.4602 134.602 45.7122 135.162C45.9642 135.713 46.0902 136.403 46.0902 137.234C46.0902 137.337 46.0855 137.449 46.0762 137.57C46.0762 137.691 46.0715 137.794 46.0622 137.878H41.1482C41.1669 138.438 41.3815 138.872 41.7922 139.18C42.2029 139.488 42.7489 139.642 43.4302 139.642C43.8315 139.642 44.2049 139.605 44.5502 139.53C44.9049 139.446 45.1895 139.367 45.4042 139.292L45.6422 140.762C45.3622 140.874 45.0262 140.967 44.6342 141.042C44.2515 141.126 43.8175 141.168 43.3322 141.168ZM41.1622 136.618H44.3822C44.3822 136.31 44.3262 136.03 44.2142 135.778C44.1115 135.526 43.9435 135.325 43.7102 135.176C43.4862 135.017 43.2015 134.938 42.8562 134.938C42.5015 134.938 42.2029 135.017 41.9602 135.176C41.7269 135.335 41.5449 135.545 41.4142 135.806C41.2835 136.058 41.1995 136.329 41.1622 136.618ZM49.7844 141C49.4764 140.375 49.1544 139.675 48.8184 138.9C48.4917 138.125 48.1697 137.299 47.8524 136.422C47.5444 135.535 47.2504 134.616 46.9704 133.664H48.8044C48.9537 134.205 49.1264 134.798 49.3224 135.442C49.5184 136.086 49.7237 136.716 49.9384 137.332C50.1624 137.939 50.3724 138.485 50.5684 138.97C50.7084 138.615 50.8624 138.219 51.0304 137.78C51.2077 137.341 51.3804 136.884 51.5484 136.408C51.7257 135.923 51.8937 135.447 52.0524 134.98C52.211 134.513 52.3417 134.075 52.4444 133.664H54.2224C54.017 134.383 53.7884 135.083 53.5364 135.764C53.2937 136.436 53.0417 137.085 52.7804 137.71C52.5284 138.326 52.2717 138.909 52.0104 139.46C51.7584 140.011 51.5157 140.524 51.2824 141H49.7844ZM59.0086 141.168C58.1779 141.168 57.4639 141.019 56.8666 140.72C56.2786 140.421 55.8259 139.992 55.5086 139.432C55.2006 138.863 55.0466 138.177 55.0466 137.374C55.0466 136.721 55.1399 136.151 55.3266 135.666C55.5226 135.181 55.7839 134.775 56.1106 134.448C56.4466 134.121 56.8199 133.879 57.2306 133.72C57.6412 133.552 58.0659 133.468 58.5046 133.468C59.2139 133.468 59.8066 133.613 60.2826 133.902C60.7679 134.182 61.1366 134.602 61.3886 135.162C61.6406 135.713 61.7666 136.403 61.7666 137.234C61.7666 137.337 61.7619 137.449 61.7526 137.57C61.7526 137.691 61.7479 137.794 61.7386 137.878H56.8246C56.8432 138.438 57.0579 138.872 57.4686 139.18C57.8792 139.488 58.4252 139.642 59.1066 139.642C59.5079 139.642 59.8812 139.605 60.2266 139.53C60.5812 139.446 60.8659 139.367 61.0806 139.292L61.3186 140.762C61.0386 140.874 60.7026 140.967 60.3106 141.042C59.9279 141.126 59.4939 141.168 59.0086 141.168ZM56.8386 136.618H60.0586C60.0586 136.31 60.0026 136.03 59.8906 135.778C59.7879 135.526 59.6199 135.325 59.3866 135.176C59.1626 135.017 58.8779 134.938 58.5326 134.938C58.1779 134.938 57.8792 135.017 57.6366 135.176C57.4032 135.335 57.2212 135.545 57.0906 135.806C56.9599 136.058 56.8759 136.329 56.8386 136.618ZM67.5467 141.168C66.9494 141.168 66.4687 141.051 66.1047 140.818C65.7407 140.585 65.4747 140.239 65.3067 139.782C65.1387 139.325 65.0547 138.769 65.0547 138.116V131.662H62.9967V130.206H66.7907V138.214C66.7907 138.587 66.8374 138.877 66.9307 139.082C67.0241 139.287 67.1501 139.432 67.3087 139.516C67.4767 139.6 67.6681 139.642 67.8827 139.642C68.2467 139.642 68.5594 139.595 68.8207 139.502C69.0821 139.409 69.2641 139.339 69.3667 139.292L69.5907 140.706C69.5161 140.753 69.3014 140.841 68.9467 140.972C68.5921 141.103 68.1254 141.168 67.5467 141.168ZM74.1109 141.196C73.4389 141.196 72.8463 141.033 72.3329 140.706C71.8196 140.379 71.4183 139.927 71.1289 139.348C70.8396 138.76 70.6949 138.083 70.6949 137.318C70.6949 136.543 70.8396 135.871 71.1289 135.302C71.4276 134.723 71.8336 134.275 72.3469 133.958C72.8696 133.631 73.4576 133.468 74.1109 133.468C74.7923 133.468 75.3896 133.631 75.9029 133.958C76.4163 134.275 76.8176 134.723 77.1069 135.302C77.3963 135.871 77.5409 136.543 77.5409 137.318C77.5409 138.083 77.3963 138.76 77.1069 139.348C76.8176 139.927 76.4163 140.379 75.9029 140.706C75.3989 141.033 74.8016 141.196 74.1109 141.196ZM74.0969 139.67C74.4516 139.67 74.7503 139.572 74.9929 139.376C75.2449 139.18 75.4363 138.909 75.5669 138.564C75.6976 138.209 75.7629 137.799 75.7629 137.332C75.7629 136.865 75.6976 136.455 75.5669 136.1C75.4456 135.745 75.2636 135.475 75.0209 135.288C74.7783 135.092 74.4749 134.994 74.1109 134.994C73.7656 134.994 73.4669 135.092 73.2149 135.288C72.9723 135.475 72.7856 135.745 72.6549 136.1C72.5243 136.455 72.4589 136.865 72.4589 137.332C72.4589 137.799 72.5196 138.209 72.6409 138.564C72.7716 138.909 72.9583 139.18 73.2009 139.376C73.4436 139.572 73.7423 139.67 74.0969 139.67ZM79.0651 143.59V133.888C79.2798 133.813 79.5364 133.748 79.8351 133.692C80.1431 133.636 80.4651 133.589 80.8011 133.552C81.1464 133.515 81.4871 133.496 81.8231 133.496C82.5698 133.496 83.2044 133.655 83.7271 133.972C84.2498 134.28 84.6464 134.723 84.9171 135.302C85.1971 135.871 85.3371 136.548 85.3371 137.332C85.3371 138.079 85.2251 138.741 85.0011 139.32C84.7771 139.899 84.4411 140.351 83.9931 140.678C83.5544 141.005 83.0131 141.168 82.3691 141.168C82.0798 141.168 81.8044 141.135 81.5431 141.07C81.2818 141.005 81.0298 140.911 80.7871 140.79V143.59H79.0651ZM82.0471 139.656C82.3924 139.656 82.6771 139.563 82.9011 139.376C83.1251 139.189 83.2884 138.928 83.3911 138.592C83.5031 138.247 83.5591 137.841 83.5591 137.374C83.5591 136.655 83.4098 136.081 83.1111 135.652C82.8124 135.213 82.3831 134.994 81.8231 134.994C81.6084 134.994 81.4078 135.008 81.2211 135.036C81.0438 135.055 80.8991 135.069 80.7871 135.078V139.292C80.9271 139.395 81.1138 139.483 81.3471 139.558C81.5804 139.623 81.8138 139.656 82.0471 139.656ZM90.3613 141.168C89.5306 141.168 88.8166 141.019 88.2193 140.72C87.6313 140.421 87.1786 139.992 86.8613 139.432C86.5533 138.863 86.3993 138.177 86.3993 137.374C86.3993 136.721 86.4926 136.151 86.6793 135.666C86.8753 135.181 87.1366 134.775 87.4633 134.448C87.7993 134.121 88.1726 133.879 88.5833 133.72C88.994 133.552 89.4186 133.468 89.8573 133.468C90.5666 133.468 91.1593 133.613 91.6353 133.902C92.1206 134.182 92.4893 134.602 92.7413 135.162C92.9933 135.713 93.1193 136.403 93.1193 137.234C93.1193 137.337 93.1146 137.449 93.1053 137.57C93.1053 137.691 93.1006 137.794 93.0913 137.878H88.1773C88.196 138.438 88.4106 138.872 88.8213 139.18C89.232 139.488 89.778 139.642 90.4593 139.642C90.8606 139.642 91.234 139.605 91.5793 139.53C91.934 139.446 92.2186 139.367 92.4333 139.292L92.6713 140.762C92.3913 140.874 92.0553 140.967 91.6633 141.042C91.2806 141.126 90.8466 141.168 90.3613 141.168ZM88.1913 136.618H91.4113C91.4113 136.31 91.3553 136.03 91.2433 135.778C91.1406 135.526 90.9726 135.325 90.7393 135.176C90.5153 135.017 90.2306 134.938 89.8853 134.938C89.5306 134.938 89.232 135.017 88.9893 135.176C88.756 135.335 88.574 135.545 88.4433 135.806C88.3126 136.058 88.2286 136.329 88.1913 136.618ZM95.1895 141V134.112C95.7028 133.925 96.2255 133.781 96.7575 133.678C97.2988 133.566 97.9055 133.51 98.5775 133.51C98.7455 133.51 98.9601 133.519 99.2215 133.538C99.4828 133.557 99.7535 133.585 100.033 133.622C100.313 133.659 100.57 133.715 100.803 133.79L100.495 135.386C100.318 135.339 100.113 135.297 99.8795 135.26C99.6555 135.223 99.4361 135.195 99.2215 135.176C99.0068 135.157 98.8108 135.148 98.6335 135.148C98.3535 135.148 98.0735 135.167 97.7935 135.204C97.5135 135.232 97.2288 135.283 96.9395 135.358V141H95.1895ZM105.114 141.168C104.722 141.168 104.362 141.135 104.036 141.07C103.709 141.014 103.41 140.944 103.14 140.86C102.878 140.767 102.645 140.678 102.44 140.594L102.734 139.11C103.088 139.25 103.471 139.385 103.882 139.516C104.302 139.637 104.731 139.698 105.17 139.698C105.674 139.698 106.056 139.656 106.318 139.572C106.588 139.479 106.724 139.311 106.724 139.068C106.724 138.872 106.644 138.713 106.486 138.592C106.336 138.461 106.14 138.349 105.898 138.256C105.655 138.163 105.389 138.069 105.1 137.976C104.82 137.892 104.53 137.794 104.232 137.682C103.942 137.57 103.676 137.43 103.434 137.262C103.191 137.094 102.995 136.884 102.846 136.632C102.696 136.38 102.622 136.072 102.622 135.708C102.622 135.297 102.729 134.924 102.944 134.588C103.158 134.243 103.494 133.972 103.952 133.776C104.409 133.571 104.997 133.468 105.716 133.468C106.173 133.468 106.607 133.505 107.018 133.58C107.438 133.645 107.797 133.739 108.096 133.86L107.816 135.358C107.704 135.311 107.54 135.255 107.326 135.19C107.111 135.125 106.864 135.069 106.584 135.022C106.313 134.966 106.028 134.938 105.73 134.938C105.216 134.938 104.857 135.003 104.652 135.134C104.446 135.255 104.344 135.414 104.344 135.61C104.344 135.769 104.414 135.909 104.554 136.03C104.694 136.151 104.876 136.259 105.1 136.352C105.333 136.436 105.585 136.525 105.856 136.618C106.145 136.721 106.439 136.833 106.738 136.954C107.046 137.075 107.326 137.225 107.578 137.402C107.839 137.57 108.044 137.785 108.194 138.046C108.352 138.298 108.432 138.615 108.432 138.998C108.432 139.418 108.324 139.791 108.11 140.118C107.895 140.445 107.545 140.701 107.06 140.888C106.574 141.075 105.926 141.168 105.114 141.168ZM121.014 141.168C120.678 141.168 120.337 141.149 119.992 141.112C119.647 141.084 119.32 141.042 119.012 140.986C118.713 140.921 118.452 140.851 118.228 140.776V130.416L119.978 130.122V133.86C120.211 133.739 120.459 133.65 120.72 133.594C120.991 133.529 121.271 133.496 121.56 133.496C122.204 133.496 122.745 133.659 123.184 133.986C123.632 134.303 123.968 134.751 124.192 135.33C124.425 135.899 124.542 136.567 124.542 137.332C124.542 138.116 124.402 138.797 124.122 139.376C123.842 139.945 123.436 140.389 122.904 140.706C122.381 141.014 121.751 141.168 121.014 141.168ZM120.944 139.67C121.504 139.67 121.947 139.483 122.274 139.11C122.601 138.727 122.764 138.121 122.764 137.29C122.764 136.814 122.708 136.408 122.596 136.072C122.493 135.736 122.325 135.475 122.092 135.288C121.868 135.101 121.583 135.008 121.238 135.008C121.005 135.008 120.771 135.045 120.538 135.12C120.305 135.195 120.118 135.279 119.978 135.372V139.558C120.137 139.595 120.305 139.623 120.482 139.642C120.659 139.661 120.813 139.67 120.944 139.67ZM128.978 141.196C128.306 141.196 127.714 141.033 127.2 140.706C126.687 140.379 126.286 139.927 125.996 139.348C125.707 138.76 125.562 138.083 125.562 137.318C125.562 136.543 125.707 135.871 125.996 135.302C126.295 134.723 126.701 134.275 127.214 133.958C127.737 133.631 128.325 133.468 128.978 133.468C129.66 133.468 130.257 133.631 130.77 133.958C131.284 134.275 131.685 134.723 131.974 135.302C132.264 135.871 132.408 136.543 132.408 137.318C132.408 138.083 132.264 138.76 131.974 139.348C131.685 139.927 131.284 140.379 130.77 140.706C130.266 141.033 129.669 141.196 128.978 141.196ZM128.964 139.67C129.319 139.67 129.618 139.572 129.86 139.376C130.112 139.18 130.304 138.909 130.434 138.564C130.565 138.209 130.63 137.799 130.63 137.332C130.63 136.865 130.565 136.455 130.434 136.1C130.313 135.745 130.131 135.475 129.888 135.288C129.646 135.092 129.342 134.994 128.978 134.994C128.633 134.994 128.334 135.092 128.082 135.288C127.84 135.475 127.653 135.745 127.522 136.1C127.392 136.455 127.326 136.865 127.326 137.332C127.326 137.799 127.387 138.209 127.508 138.564C127.639 138.909 127.826 139.18 128.068 139.376C128.311 139.572 128.61 139.67 128.964 139.67ZM136.816 141.196C136.144 141.196 135.552 141.033 135.038 140.706C134.525 140.379 134.124 139.927 133.834 139.348C133.545 138.76 133.4 138.083 133.4 137.318C133.4 136.543 133.545 135.871 133.834 135.302C134.133 134.723 134.539 134.275 135.052 133.958C135.575 133.631 136.163 133.468 136.816 133.468C137.498 133.468 138.095 133.631 138.608 133.958C139.122 134.275 139.523 134.723 139.812 135.302C140.102 135.871 140.246 136.543 140.246 137.318C140.246 138.083 140.102 138.76 139.812 139.348C139.523 139.927 139.122 140.379 138.608 140.706C138.104 141.033 137.507 141.196 136.816 141.196ZM136.802 139.67C137.157 139.67 137.456 139.572 137.698 139.376C137.95 139.18 138.142 138.909 138.272 138.564C138.403 138.209 138.468 137.799 138.468 137.332C138.468 136.865 138.403 136.455 138.272 136.1C138.151 135.745 137.969 135.475 137.726 135.288C137.484 135.092 137.18 134.994 136.816 134.994C136.471 134.994 136.172 135.092 135.92 135.288C135.678 135.475 135.491 135.745 135.36 136.1C135.23 136.455 135.164 136.865 135.164 137.332C135.164 137.799 135.225 138.209 135.346 138.564C135.477 138.909 135.664 139.18 135.906 139.376C136.149 139.572 136.448 139.67 136.802 139.67ZM141.771 141V130.416L143.507 130.122V136.618C143.796 136.31 144.09 135.988 144.389 135.652C144.687 135.316 144.972 134.975 145.243 134.63C145.523 134.285 145.765 133.963 145.971 133.664H148.043C147.781 133.991 147.473 134.345 147.119 134.728C146.764 135.111 146.405 135.489 146.041 135.862C145.677 136.235 145.331 136.585 145.005 136.912C145.275 137.145 145.569 137.435 145.887 137.78C146.204 138.116 146.521 138.475 146.839 138.858C147.156 139.241 147.445 139.619 147.707 139.992C147.968 140.356 148.173 140.692 148.323 141H146.321C146.171 140.711 145.98 140.403 145.747 140.076C145.523 139.749 145.28 139.427 145.019 139.11C144.757 138.783 144.496 138.48 144.235 138.2C143.973 137.92 143.731 137.691 143.507 137.514V141H141.771ZM152.143 141.168C151.751 141.168 151.391 141.135 151.065 141.07C150.738 141.014 150.439 140.944 150.169 140.86C149.907 140.767 149.674 140.678 149.469 140.594L149.763 139.11C150.117 139.25 150.5 139.385 150.911 139.516C151.331 139.637 151.76 139.698 152.199 139.698C152.703 139.698 153.085 139.656 153.347 139.572C153.617 139.479 153.753 139.311 153.753 139.068C153.753 138.872 153.673 138.713 153.515 138.592C153.365 138.461 153.169 138.349 152.927 138.256C152.684 138.163 152.418 138.069 152.129 137.976C151.849 137.892 151.559 137.794 151.261 137.682C150.971 137.57 150.705 137.43 150.463 137.262C150.22 137.094 150.024 136.884 149.875 136.632C149.725 136.38 149.651 136.072 149.651 135.708C149.651 135.297 149.758 134.924 149.973 134.588C150.187 134.243 150.523 133.972 150.981 133.776C151.438 133.571 152.026 133.468 152.745 133.468C153.202 133.468 153.636 133.505 154.047 133.58C154.467 133.645 154.826 133.739 155.125 133.86L154.845 135.358C154.733 135.311 154.569 135.255 154.355 135.19C154.14 135.125 153.893 135.069 153.613 135.022C153.342 134.966 153.057 134.938 152.759 134.938C152.245 134.938 151.886 135.003 151.681 135.134C151.475 135.255 151.373 135.414 151.373 135.61C151.373 135.769 151.443 135.909 151.583 136.03C151.723 136.151 151.905 136.259 152.129 136.352C152.362 136.436 152.614 136.525 152.885 136.618C153.174 136.721 153.468 136.833 153.767 136.954C154.075 137.075 154.355 137.225 154.607 137.402C154.868 137.57 155.073 137.785 155.223 138.046C155.381 138.298 155.461 138.615 155.461 138.998C155.461 139.418 155.353 139.791 155.139 140.118C154.924 140.445 154.574 140.701 154.089 140.888C153.603 141.075 152.955 141.168 152.143 141.168Z" fill="url(#paint1_linear_120_425)"/>
<path d="M30 147.992H163" stroke="url(#paint2_linear_120_425)"/>
<defs>
<linearGradient id="paint0_linear_120_425" x1="95.5" y1="45" x2="95.5" y2="145" gradientUnits="userSpaceOnUse">
<stop stop-color="#2D2A2A"/>
<stop offset="1" stop-color="#938A8A"/>
</linearGradient>
<linearGradient id="paint1_linear_120_425" x1="94" y1="127" x2="94" y2="145" gradientUnits="userSpaceOnUse">
<stop stop-color="#2D2A2A"/>
<stop offset="1" stop-color="#938A8A"/>
</linearGradient>
<linearGradient id="paint2_linear_120_425" x1="96.5" y1="147.992" x2="96.5" y2="148.992" gradientUnits="userSpaceOnUse">
<stop stop-color="#2D2A2A"/>
<stop offset="1" stop-color="#938A8A"/>
</linearGradient>
</defs>
</svg>
